<svg version="1.1" id="Layer_1" xmlns="http://www.w3.org/2000/svg" xmlns:xlink="http://www.w3.org/1999/xlink" x="0px" y="0px"
	 width="100%" viewBox="0 0 1024 512" enable-background="new 0 0 1024 512" xml:space="preserve">
<path fill="#000000" opacity="1.000000" stroke="none" 
	d="
M833.308411,94.067955 
	C836.583069,95.157471 838.330688,93.531059 840.193481,91.655502 
	C843.626404,88.199203 846.889221,84.488731 851.373291,81.675484 
	C852.924255,85.366066 851.555298,88.280090 850.767944,90.973038 
	C849.481628,95.372139 851.079651,96.773666 855.191711,97.736038 
	C866.698364,100.428986 878.101624,103.563484 889.546021,106.522476 
	C890.499451,106.768997 891.549866,106.820137 892.167847,107.927696 
	C892.676331,109.450569 891.453979,110.282761 890.552795,111.195107 
	C884.697388,117.122620 878.738098,122.949860 872.979858,128.969696 
	C870.860474,131.185379 868.703796,131.730484 865.824646,130.923904 
	C859.574097,129.172821 853.236755,127.726089 847.007874,125.905334 
	C844.106140,125.057144 842.633057,125.678635 841.991760,128.703308 
	C834.159058,165.644669 823.097534,201.950638 820.054443,239.833496 
	C818.343018,261.138763 817.772156,282.447632 822.285461,303.507080 
	C824.489319,313.790375 827.927856,323.650330 834.094238,332.449463 
	C837.411682,337.183197 842.425720,339.354523 846.831970,341.946411 
	C846.820374,344.251282 845.392334,345.047638 844.374268,346.085327 
	C839.823547,350.724060 835.227966,355.318787 830.668274,359.948822 
	C823.959045,366.761810 820.363464,366.735901 813.505249,359.714935 
	C808.891418,354.991547 805.672180,349.359924 803.222656,343.291107 
	C798.059631,330.498962 795.760254,317.121185 794.775513,303.401276 
	C792.203491,267.564148 798.490540,232.764908 806.588196,198.141510 
	C812.236328,173.991913 817.749695,149.810837 823.386230,125.658493 
	C824.183350,122.242783 823.567322,120.510277 819.615540,119.951019 
	C804.772583,117.850403 789.901550,115.922211 774.926819,115.390556 
	C703.165222,112.842728 631.388672,111.166885 559.573181,110.782013 
	C530.584717,110.626663 501.589386,110.233482 472.603058,110.438133 
	C430.799011,110.733276 389.039764,112.528580 347.288666,114.815041 
	C322.178833,116.190155 297.089142,117.852623 272.001617,119.493713 
	C244.764282,121.275421 217.558655,123.639824 190.440170,126.857544 
	C177.551697,128.386810 164.659714,129.886993 151.765091,131.363358 
	C144.871887,132.152603 144.737564,132.359756 146.604752,138.968567 
	C152.244446,158.930023 155.514084,179.284790 156.028366,200.015961 
	C156.404007,215.158096 157.510391,230.276917 156.521591,245.465744 
	C154.408890,277.918793 143.587219,307.352875 127.793877,335.525665 
	C120.499817,348.537109 111.427124,359.564545 100.486229,369.357239 
	C99.500015,370.239960 98.507706,371.118805 97.470665,371.939362 
	C97.263115,372.103607 96.838951,371.994049 96.134346,372.030334 
	C95.199120,367.696320 97.690720,364.435760 99.746544,361.228973 
	C108.233078,347.991028 115.479309,334.126984 120.679092,319.287201 
	C127.199600,300.678131 131.992691,281.728058 131.989182,261.763123 
	C131.985062,238.434082 132.276611,215.082764 128.668701,191.968521 
	C125.970238,174.680557 122.054405,157.663544 114.753342,141.562195 
	C112.694008,137.020660 110.238586,135.926010 105.481499,136.755341 
	C100.230202,137.670807 94.888374,139.053192 87.896133,138.200897 
	C93.133522,132.660202 97.562042,127.975227 101.990562,123.290245 
	C101.789482,123.100044 101.588402,122.909851 101.387321,122.719650 
	C97.390358,126.538040 93.393387,130.356430 88.454231,135.074921 
	C87.514336,128.799271 89.453712,124.505470 92.419533,121.266899 
	C99.608780,113.416504 107.307808,106.027740 114.906593,98.559998 
	C118.303589,95.221588 122.112579,95.452332 125.753975,98.226227 
	C128.562302,100.365509 131.070969,102.981316 132.490524,106.171906 
	C134.424866,110.519531 137.522614,111.243301 141.769440,110.694389 
	C158.607162,108.518074 175.460556,106.459908 192.317825,104.438736 
	C218.763550,101.267921 245.264313,98.712708 271.821686,96.597992 
	C303.520691,94.073845 335.244873,91.992241 366.982635,90.104546 
	C384.432800,89.066650 401.916016,88.598267 419.376678,87.720444 
	C479.493927,84.698074 539.651794,85.803391 599.793945,86.103447 
	C641.941162,86.313728 684.107117,86.736618 726.221191,88.264709 
	C755.498596,89.327049 784.838623,89.311775 814.056213,91.882423 
	C820.353882,92.436508 826.625305,93.289124 833.308411,94.067955 
z"/>
<path fill="#000000" opacity="1.000000" stroke="none" 
	d="
M820.929077,385.896729 
	C847.004272,388.397736 872.634216,390.729309 897.912048,394.099915 
	C898.650696,396.689911 897.064453,397.443817 896.083618,398.436523 
	C890.461548,404.126862 884.680054,409.664764 879.196594,415.484253 
	C876.992126,417.823853 874.681946,418.548248 871.643372,418.136230 
	C825.909058,411.935089 779.917542,408.626587 733.868225,406.004395 
	C701.281677,404.148865 668.706177,402.151855 636.084595,400.864014 
	C600.955139,399.477234 565.792969,399.310242 530.679871,397.961304 
	C458.539703,395.189911 386.395294,395.858429 314.253021,396.474457 
	C252.444305,397.002197 190.660690,399.375793 128.837402,399.493134 
	C106.520180,399.535492 84.205978,400.614777 61.888050,401.116486 
	C53.584606,401.303192 45.495037,399.469513 37.640442,398.780914 
	C36.753094,396.377197 38.010780,395.561798 38.900970,394.662598 
	C44.528896,388.977722 50.286415,383.417328 55.795193,377.620148 
	C58.105740,375.188599 60.642658,374.317261 63.832787,374.743378 
	C86.587906,377.783234 109.422012,375.776276 132.211121,375.589539 
	C177.029449,375.222382 221.871201,375.109650 266.652222,373.484772 
	C316.967987,371.659058 367.278564,371.895721 417.595184,371.612518 
	C458.911652,371.379944 500.234833,371.374939 541.525513,373.044861 
	C566.666748,374.061646 591.828064,373.890198 616.963074,374.803894 
	C658.070618,376.298157 699.164001,378.085663 740.230591,380.564087 
	C766.988159,382.178986 793.743286,383.768066 820.929077,385.896729 
z"/>
</svg>