<svg version="1.1" id="Layer_1" xmlns="http://www.w3.org/2000/svg" xmlns:xlink="http://www.w3.org/1999/xlink" x="0px" y="0px"
	 width="100%" viewBox="0 0 1024 736" enable-background="new 0 0 1024 736" xml:space="preserve">
<path fill="#000000" opacity="1.000000" stroke="none" 
	d="
M277.089050,571.855896 
	C321.533905,598.017151 369.298553,613.444458 419.826263,620.459229 
	C457.076385,625.630798 494.211517,625.442444 530.889587,615.737610 
	C556.064514,609.076538 579.541687,598.518982 601.372986,584.430786 
	C627.511902,567.562805 651.520569,547.975525 672.744141,525.221252 
	C716.298767,478.525482 752.688049,426.789673 780.506470,369.210052 
	C793.714661,341.871094 804.928162,313.735474 811.835205,284.074463 
	C817.972717,257.718018 819.938660,231.338287 809.790955,205.424515 
	C801.437744,184.093109 786.351379,168.121979 768.271362,154.660339 
	C737.533997,131.774536 702.365356,118.614838 665.919922,108.489540 
	C630.263733,98.583504 593.942688,91.892990 557.234558,87.184898 
	C514.230652,81.669334 471.065582,78.507370 427.719971,78.509323 
	C394.872192,78.510803 362.239563,81.783997 329.764557,86.690735 
	C294.164185,92.069687 259.202087,100.313660 224.507141,109.797455 
	C222.936584,110.226753 221.327667,110.864845 219.739517,109.880257 
	C219.636765,109.508415 219.375000,109.020485 219.488541,108.906525 
	C228.084778,100.279114 234.426178,89.706863 247.994019,86.311180 
	C287.910614,76.321053 327.938263,67.110306 368.811279,62.056808 
	C400.915741,58.087448 433.153778,56.034462 465.517883,57.057682 
	C526.364990,58.981400 586.763550,64.879799 646.386292,77.665779 
	C683.781799,85.685173 720.405884,95.974602 754.777466,113.187065 
	C778.881165,125.257561 800.681824,140.335800 817.279175,161.954910 
	C834.721008,184.674149 840.351501,210.699051 837.552734,238.761230 
	C833.505798,279.337738 818.524109,316.510681 801.173523,352.846771 
	C781.282776,394.502563 756.145386,432.872437 727.666931,469.140045 
	C712.315857,488.689728 696.043091,507.416748 678.507568,525.003418 
	C654.876953,548.703125 631.122437,572.235779 603.992737,592.140869 
	C565.608582,620.303406 523.497498,638.860229 475.885956,643.828003 
	C452.259094,646.293274 428.671204,645.340820 405.111237,642.256287 
	C356.895721,635.943726 311.006317,622.244080 268.188293,599.054688 
	C221.775314,573.918335 184.355927,539.476074 160.821030,491.540466 
	C146.514816,462.401794 138.560867,431.419373 140.247681,398.825836 
	C142.764603,350.193085 159.854141,306.829559 191.604965,269.825439 
	C226.548538,229.100342 267.728790,196.303955 317.358887,174.887039 
	C346.927979,162.127075 377.383209,152.055756 408.745941,144.669174 
	C431.458832,139.319824 454.404602,135.559662 477.545868,132.569321 
	C516.794678,127.497581 556.174988,125.831993 595.674255,126.805984 
	C643.395386,127.982704 690.177490,134.877197 735.346863,151.006058 
	C748.562256,155.724945 758.889893,164.689789 769.257568,173.581802 
	C776.691406,179.957611 784.651245,185.806061 790.255310,194.125671 
	C792.115356,196.886978 791.972900,198.596176 789.616577,200.934631 
	C783.981323,206.527161 778.632080,212.407822 772.596497,218.774185 
	C763.982056,205.217560 752.008179,197.175125 741.314758,187.768463 
	C731.226929,178.894516 719.533325,173.328979 706.840820,169.192841 
	C669.356873,156.977859 630.857178,151.055984 591.584351,149.006470 
	C564.086853,147.571472 536.614380,147.709641 509.180817,149.419327 
	C450.123840,153.099854 392.071838,162.489288 336.035217,182.178619 
	C293.768097,197.029831 254.145752,216.836304 219.987045,246.338531 
	C207.619141,257.020477 198.580643,270.539642 190.517609,284.569611 
	C169.495728,321.148621 158.997162,360.492004 162.452667,402.769287 
	C164.871628,432.364532 174.233292,460.049011 189.272858,485.749237 
	C210.670746,522.314697 240.786026,549.977295 277.089050,571.855896 
z"/>
</svg>