<svg version="1.1" id="Layer_1" xmlns="http://www.w3.org/2000/svg" xmlns:xlink="http://www.w3.org/1999/xlink" x="0px" y="0px"
	 width="100%" viewBox="0 0 1024 512" enable-background="new 0 0 1024 512" xml:space="preserve">
<path fill="#000000" opacity="1.000000" stroke="none" 
	d="
M214.632538,400.415009 
	C183.284119,382.367798 151.176819,366.277435 122.403000,344.707184 
	C94.732765,323.964203 78.442406,296.356995 74.185684,262.047394 
	C71.379753,239.431305 76.971336,218.079086 85.729881,197.369553 
	C95.693314,173.811096 110.313766,153.682983 129.029663,136.276077 
	C140.363586,125.734848 150.740967,114.212303 162.960220,104.559525 
	C186.965836,85.595963 214.735291,75.413910 244.122818,68.858032 
	C258.251709,65.706116 272.351501,62.210056 287.012939,62.637508 
	C294.215454,62.847496 301.299652,65.656120 305.089935,70.031906 
	C302.491913,74.062134 298.678925,77.067635 295.330994,80.464058 
	C292.099731,83.742165 288.598602,86.754257 285.216034,89.883232 
	C285.525757,90.336281 285.835480,90.789337 286.145233,91.242386 
	C292.927979,89.975334 299.712738,88.718948 306.493103,87.439339 
	C333.337463,82.373199 360.363098,78.805420 387.600189,76.507210 
	C417.672333,73.969780 447.781097,72.851906 477.928406,72.937119 
	C529.692749,73.083420 581.098694,77.471176 631.663818,88.880386 
	C683.698730,100.621246 735.159729,114.329613 784.195679,135.992126 
	C825.655151,154.307617 864.200134,177.047516 897.593506,207.966431 
	C907.046265,216.718750 915.232422,226.583359 922.346924,237.332001 
	C944.175659,270.310364 943.246338,304.856171 920.031921,337.010223 
	C910.798279,349.799561 899.635498,360.692566 888.493408,371.715881 
	C878.191223,381.908295 868.544739,392.776978 856.465393,400.994507 
	C831.435791,418.022125 803.388123,428.020416 774.326965,435.219330 
	C740.321716,443.643005 705.606201,447.946899 670.787109,451.387329 
	C630.004822,455.417023 589.126160,457.824493 548.178833,459.504425 
	C516.358704,460.809845 484.529419,461.059174 452.754028,459.970795 
	C386.234253,457.692322 321.265045,446.881439 259.317780,421.312469 
	C244.213104,415.077942 229.395599,408.248322 214.632538,400.415009 
M738.656311,152.912186 
	C564.949341,87.153099 388.497681,83.009880 209.745895,130.503494 
	C209.344574,129.707275 208.943237,128.911057 208.541901,128.114853 
	C211.958588,125.237602 216.084152,122.883804 218.664734,119.389160 
	C227.999924,106.747345 240.860428,101.126183 255.832550,98.673492 
	C262.905945,97.514748 269.799744,95.259491 277.495056,93.319511 
	C272.391510,89.615410 267.522034,88.730652 262.460144,89.052086 
	C227.124298,91.295952 193.355362,99.634483 162.151123,116.599213 
	C149.774124,123.328178 137.783920,130.981064 129.501495,143.135223 
	C119.193680,158.261597 111.278015,174.508286 105.526505,191.834213 
	C100.029495,208.393478 98.362961,225.454193 100.892540,242.638000 
	C106.079628,277.874756 125.052483,304.384674 153.983215,324.370514 
	C173.343445,337.744873 194.166656,348.669037 214.249344,360.830109 
	C291.321533,407.501312 375.564697,429.364441 464.879944,433.589874 
	C497.496094,435.132935 530.145142,435.303192 562.800903,433.922394 
	C592.407471,432.670532 621.991699,431.229279 651.547607,429.018982 
	C687.246460,426.349274 722.805237,422.781860 758.182373,417.098877 
	C790.755737,411.866364 822.436218,403.927246 852.405518,389.947479 
	C870.216064,381.639343 886.586853,371.723755 897.495911,354.244110 
	C916.324707,324.074677 917.140442,294.212494 898.090698,264.036133 
	C887.662842,247.517471 874.115601,233.886276 859.164185,221.416290 
	C823.288574,191.494736 782.340515,170.597748 738.656311,152.912186 
z"/>
</svg>